<?xml version="1.0" encoding="utf-8"?><svg width="300" height="300" viewBox="0 0 300 300" xmlns="http://www.w3.org/2000/svg" xmlns:xlink="http://www.w3.org/1999/xlink"><view id="check" viewBox="0 0 300 300"/><svg width="300" height="300" viewBox="0 0 800 800" id="check-"><defs><style>.acls-1{fill-rule:evenodd}</style></defs><path id="aRounded_Rectangle_1_copy" data-name="Rounded Rectangle 1 copy" class="acls-1" d="M398.5 7C615.272 7 791 182.728 791 399.5S615.272 792 398.5 792 6 616.272 6 399.5 181.728 7 398.5 7zm.5 40c194.956 0 353 158.044 353 353S593.956 753 399 753 46 594.956 46 400 204.044 47 399 47zM130.739 395.8l4.95-4.95a15 15 0 0 1 21.213 0L360.649 594.6l-10 11.213-4.95 4.95a15 15 0 0 1-21.213 0L130.739 417.014a15 15 0 0 1 0-21.214zm204.333 174.263L644.1 260.036a15 15 0 0 1 21.213 0l4.95 4.95a15 15 0 0 1 0 21.213L360.235 595.226z"/></svg></svg>